<mxfile host="app.diagrams.net" modified="2023-02-07T02:07:17.687Z" agent="5.0 (Windows NT 10.0; Win64; x64) AppleWebKit/537.36 (KHTML, like Gecko) Chrome/109.0.0.0 Safari/537.36" etag="ywxMBtdfjivuF8aOlhE4" version="20.8.16" type="github">
  <diagram id="C5RBs43oDa-KdzZeNtuy" name="Page-1">
    <mxGraphModel dx="806" dy="1111" grid="1" gridSize="10" guides="1" tooltips="1" connect="1" arrows="1" fold="1" page="1" pageScale="1" pageWidth="827" pageHeight="1169" math="0" shadow="0">
      <root>
        <mxCell id="WIyWlLk6GJQsqaUBKTNV-0" />
        <mxCell id="WIyWlLk6GJQsqaUBKTNV-1" parent="WIyWlLk6GJQsqaUBKTNV-0" />
        <mxCell id="ePI5klZWGTLnTIbrATHt-5" style="edgeStyle=orthogonalEdgeStyle;rounded=0;orthogonalLoop=1;jettySize=auto;html=1;exitX=0.5;exitY=1;exitDx=0;exitDy=0;entryX=0.625;entryY=0;entryDx=0;entryDy=0;entryPerimeter=0;" edge="1" parent="WIyWlLk6GJQsqaUBKTNV-1" source="ePI5klZWGTLnTIbrATHt-2" target="ePI5klZWGTLnTIbrATHt-3">
          <mxGeometry relative="1" as="geometry" />
        </mxCell>
        <mxCell id="ePI5klZWGTLnTIbrATHt-2" value="START" style="ellipse;whiteSpace=wrap;html=1;" vertex="1" parent="WIyWlLk6GJQsqaUBKTNV-1">
          <mxGeometry x="340" y="20" width="120" height="80" as="geometry" />
        </mxCell>
        <mxCell id="ePI5klZWGTLnTIbrATHt-7" style="edgeStyle=orthogonalEdgeStyle;rounded=0;orthogonalLoop=1;jettySize=auto;html=1;entryX=0;entryY=0.5;entryDx=0;entryDy=0;" edge="1" parent="WIyWlLk6GJQsqaUBKTNV-1" source="ePI5klZWGTLnTIbrATHt-3" target="ePI5klZWGTLnTIbrATHt-6">
          <mxGeometry relative="1" as="geometry" />
        </mxCell>
        <mxCell id="ePI5klZWGTLnTIbrATHt-3" value="User login to Instagram" style="shape=parallelogram;perimeter=parallelogramPerimeter;whiteSpace=wrap;html=1;fixedSize=1;" vertex="1" parent="WIyWlLk6GJQsqaUBKTNV-1">
          <mxGeometry x="120" y="150" width="220" height="90" as="geometry" />
        </mxCell>
        <mxCell id="ePI5klZWGTLnTIbrATHt-9" style="edgeStyle=orthogonalEdgeStyle;rounded=0;orthogonalLoop=1;jettySize=auto;html=1;exitX=0.5;exitY=1;exitDx=0;exitDy=0;entryX=0.5;entryY=0;entryDx=0;entryDy=0;" edge="1" parent="WIyWlLk6GJQsqaUBKTNV-1" source="ePI5klZWGTLnTIbrATHt-6" target="ePI5klZWGTLnTIbrATHt-8">
          <mxGeometry relative="1" as="geometry" />
        </mxCell>
        <mxCell id="ePI5klZWGTLnTIbrATHt-6" value="AUTHENTICATE" style="rounded=1;whiteSpace=wrap;html=1;" vertex="1" parent="WIyWlLk6GJQsqaUBKTNV-1">
          <mxGeometry x="360" y="150" width="250" height="90" as="geometry" />
        </mxCell>
        <mxCell id="ePI5klZWGTLnTIbrATHt-10" style="edgeStyle=orthogonalEdgeStyle;rounded=0;orthogonalLoop=1;jettySize=auto;html=1;startArrow=none;" edge="1" parent="WIyWlLk6GJQsqaUBKTNV-1" source="ePI5klZWGTLnTIbrATHt-11" target="ePI5klZWGTLnTIbrATHt-3">
          <mxGeometry relative="1" as="geometry">
            <mxPoint x="240" y="320" as="targetPoint" />
            <Array as="points">
              <mxPoint x="230" y="320" />
            </Array>
          </mxGeometry>
        </mxCell>
        <mxCell id="ePI5klZWGTLnTIbrATHt-12" style="edgeStyle=orthogonalEdgeStyle;rounded=0;orthogonalLoop=1;jettySize=auto;html=1;exitX=0.5;exitY=1;exitDx=0;exitDy=0;" edge="1" parent="WIyWlLk6GJQsqaUBKTNV-1" source="ePI5klZWGTLnTIbrATHt-8">
          <mxGeometry relative="1" as="geometry">
            <mxPoint x="485" y="430" as="targetPoint" />
          </mxGeometry>
        </mxCell>
        <mxCell id="ePI5klZWGTLnTIbrATHt-8" value="OK" style="rhombus;whiteSpace=wrap;html=1;" vertex="1" parent="WIyWlLk6GJQsqaUBKTNV-1">
          <mxGeometry x="360" y="280" width="250" height="80" as="geometry" />
        </mxCell>
        <mxCell id="ePI5klZWGTLnTIbrATHt-13" value="YES" style="text;html=1;align=center;verticalAlign=middle;resizable=0;points=[];autosize=1;strokeColor=none;fillColor=default;" vertex="1" parent="WIyWlLk6GJQsqaUBKTNV-1">
          <mxGeometry x="460" y="375" width="50" height="30" as="geometry" />
        </mxCell>
        <mxCell id="ePI5klZWGTLnTIbrATHt-14" value="" style="edgeStyle=orthogonalEdgeStyle;rounded=0;orthogonalLoop=1;jettySize=auto;html=1;endArrow=none;" edge="1" parent="WIyWlLk6GJQsqaUBKTNV-1" source="ePI5klZWGTLnTIbrATHt-8" target="ePI5klZWGTLnTIbrATHt-11">
          <mxGeometry relative="1" as="geometry">
            <mxPoint x="240" y="320" as="targetPoint" />
            <mxPoint x="360" y="320" as="sourcePoint" />
            <Array as="points">
              <mxPoint x="300" y="320" />
            </Array>
          </mxGeometry>
        </mxCell>
        <mxCell id="ePI5klZWGTLnTIbrATHt-11" value="NO" style="text;html=1;align=center;verticalAlign=middle;resizable=0;points=[];autosize=1;strokeColor=none;fillColor=default;" vertex="1" parent="WIyWlLk6GJQsqaUBKTNV-1">
          <mxGeometry x="280" y="305" width="40" height="30" as="geometry" />
        </mxCell>
        <mxCell id="ePI5klZWGTLnTIbrATHt-19" style="edgeStyle=orthogonalEdgeStyle;rounded=0;orthogonalLoop=1;jettySize=auto;html=1;exitX=0;exitY=0.5;exitDx=0;exitDy=0;" edge="1" parent="WIyWlLk6GJQsqaUBKTNV-1" source="ePI5klZWGTLnTIbrATHt-17">
          <mxGeometry relative="1" as="geometry">
            <mxPoint x="230" y="590" as="targetPoint" />
          </mxGeometry>
        </mxCell>
        <mxCell id="ePI5klZWGTLnTIbrATHt-17" value="Receive images" style="shape=parallelogram;perimeter=parallelogramPerimeter;whiteSpace=wrap;html=1;fixedSize=1;fillColor=default;" vertex="1" parent="WIyWlLk6GJQsqaUBKTNV-1">
          <mxGeometry x="360" y="430" width="250" height="110" as="geometry" />
        </mxCell>
        <mxCell id="ePI5klZWGTLnTIbrATHt-23" style="edgeStyle=orthogonalEdgeStyle;rounded=0;orthogonalLoop=1;jettySize=auto;html=1;exitX=1;exitY=0.5;exitDx=0;exitDy=0;entryX=0;entryY=0.5;entryDx=0;entryDy=0;" edge="1" parent="WIyWlLk6GJQsqaUBKTNV-1" source="ePI5klZWGTLnTIbrATHt-21" target="ePI5klZWGTLnTIbrATHt-22">
          <mxGeometry relative="1" as="geometry" />
        </mxCell>
        <mxCell id="ePI5klZWGTLnTIbrATHt-21" value="Display images" style="rounded=1;whiteSpace=wrap;html=1;fillColor=default;" vertex="1" parent="WIyWlLk6GJQsqaUBKTNV-1">
          <mxGeometry x="150" y="590" width="160" height="90" as="geometry" />
        </mxCell>
        <mxCell id="ePI5klZWGTLnTIbrATHt-26" style="edgeStyle=orthogonalEdgeStyle;rounded=0;orthogonalLoop=1;jettySize=auto;html=1;exitX=0.5;exitY=1;exitDx=0;exitDy=0;" edge="1" parent="WIyWlLk6GJQsqaUBKTNV-1" source="ePI5klZWGTLnTIbrATHt-22" target="ePI5klZWGTLnTIbrATHt-25">
          <mxGeometry relative="1" as="geometry" />
        </mxCell>
        <mxCell id="ePI5klZWGTLnTIbrATHt-22" value="Prompt for user input&lt;br&gt;(2-4 images selected)" style="shape=parallelogram;perimeter=parallelogramPerimeter;whiteSpace=wrap;html=1;fixedSize=1;fillColor=default;" vertex="1" parent="WIyWlLk6GJQsqaUBKTNV-1">
          <mxGeometry x="390" y="590" width="175" height="90" as="geometry" />
        </mxCell>
        <mxCell id="ePI5klZWGTLnTIbrATHt-28" style="edgeStyle=orthogonalEdgeStyle;rounded=0;orthogonalLoop=1;jettySize=auto;html=1;exitX=0.5;exitY=1;exitDx=0;exitDy=0;entryX=0.5;entryY=0;entryDx=0;entryDy=0;" edge="1" parent="WIyWlLk6GJQsqaUBKTNV-1" source="ePI5klZWGTLnTIbrATHt-25" target="ePI5klZWGTLnTIbrATHt-27">
          <mxGeometry relative="1" as="geometry" />
        </mxCell>
        <mxCell id="ePI5klZWGTLnTIbrATHt-25" value="Apply client side JS image processing to selected images&lt;br&gt;&lt;br&gt;display a scrambled image and a key to unscramble" style="rounded=1;whiteSpace=wrap;html=1;glass=0;sketch=0;fillColor=default;" vertex="1" parent="WIyWlLk6GJQsqaUBKTNV-1">
          <mxGeometry x="160" y="720" width="420" height="120" as="geometry" />
        </mxCell>
        <mxCell id="ePI5klZWGTLnTIbrATHt-27" value="COMPLETE" style="ellipse;whiteSpace=wrap;html=1;glass=0;sketch=0;fillColor=default;" vertex="1" parent="WIyWlLk6GJQsqaUBKTNV-1">
          <mxGeometry x="310" y="910" width="120" height="80" as="geometry" />
        </mxCell>
      </root>
    </mxGraphModel>
  </diagram>
</mxfile>
